<svg width="69" height="77" viewBox="0 0 69 77" fill="none" xmlns="http://www.w3.org/2000/svg">
<path d="M0.0753848 35.627C-1.52462 8.02704 22.7421 10.7937 35.0754 15.627C55.8755 7.22704 64.742 15.7937 66.5752 21.127C75.7752 56.727 54.4085 72.627 42.5752 76.127H27.5752C19.0753 74.127 1.67538 63.227 0.0753848 35.627Z" fill="#FE3434"/>
<path d="M34.5 16L32.0752 14.6271C33.0752 11.1271 36.7752 3.52705 43.5752 1.12705C50.3752 -1.27295 49.7419 1.12705 48.5752 2.62705C40.5752 5.82705 39.2419 11.6271 39.5752 14.1271L34.5 16Z" fill="#A03C0C"/>
<path d="M36.9287 55.4326C31.2207 55.4326 26.2646 52.0488 26.2988 43.0254C26.333 34.9932 30.5371 30.0029 36.9971 30.0029C42.3975 30.0029 46.0547 33.4551 46.4648 37.6592H40.0732C39.7314 36.2236 38.501 35.54 36.9971 35.54C34.0918 35.54 32.7588 38.2402 32.7588 42.376H32.8955C33.8867 40.1201 36.416 38.7529 39.2529 38.7529C43.7305 38.7529 46.7725 42.0684 46.7725 46.6143C46.7725 51.9121 42.7393 55.4326 36.9287 55.4326ZM36.8945 50.4766C38.9453 50.4766 40.4492 48.9385 40.4492 46.8535C40.4492 44.7344 38.9795 43.1963 36.8945 43.1963C34.8438 43.1963 33.3398 44.7344 33.3398 46.8535C33.3398 48.9385 34.8438 50.4766 36.8945 50.4766Z" fill="#FEFEFE"/>
</svg>
