<svg width="69" height="77" viewBox="0 0 69 77" fill="none" xmlns="http://www.w3.org/2000/svg">
<path d="M0.0753848 35.5543C-1.52462 7.95428 22.7421 10.721 35.0754 15.5543C55.8755 7.15429 64.742 15.721 66.5752 21.0543C75.7752 56.6543 54.4085 72.5543 42.5752 76.0543H27.5752C19.0753 74.0543 1.67538 63.1543 0.0753848 35.5543Z" fill="#FE3434"/>
<path d="M34.5 16L32.0752 14.5543C33.0752 11.0543 36.7752 3.4543 43.5752 1.0543C50.3752 -1.3457 49.7419 1.0543 48.5752 2.5543C40.5752 5.7543 39.2419 11.5543 39.5752 14.0543L34.5 16Z" fill="#A03C0C"/>
<path d="M26.6748 55.0181V50.3354L35.8691 42.6108C37.749 41.0044 38.9111 39.8423 38.9111 38.0649C38.9111 36.1509 37.5439 34.9546 35.6299 34.9546C33.7158 34.9546 32.417 36.1509 32.417 38.27H26.2305C26.2305 33.1089 29.9561 29.9302 35.6299 29.9302C41.4746 29.9302 45.2344 32.938 45.2344 37.5181C45.2344 40.3892 43.7988 42.8159 38.2275 47.4985L35.7324 49.6519V49.7886H45.5078V55.0181H26.6748Z" fill="#FEFEFE"/>
</svg>
