<svg width="69" height="77" viewBox="0 0 69 77" fill="none" xmlns="http://www.w3.org/2000/svg">
<path d="M0.0753848 35.6451C-1.52462 8.0451 22.7421 10.8118 35.0754 15.6451C55.8755 7.24511 64.742 15.8118 66.5752 21.1451C75.7752 56.7451 54.4085 72.6451 42.5752 76.1451H27.5752C19.0753 74.1451 1.67538 63.2451 0.0753848 35.6451Z" fill="#FE3434"/>
<path d="M34.5 16L32.0752 14.6451C33.0752 11.1451 36.7752 3.54512 43.5752 1.14512C50.3752 -1.25488 49.7419 1.14512 48.5752 2.64512C40.5752 5.84512 39.2419 11.6451 39.5752 14.1451L34.5 16Z" fill="#A03C0C"/>
<path d="M27.7686 55.1089L37.5781 35.729V35.5581H26.0938V30.3628H44.3457V35.5923L34.4678 55.1089H27.7686Z" fill="#FEFEFE"/>
</svg>
