<svg width="69" height="77" viewBox="0 0 69 77" fill="none" xmlns="http://www.w3.org/2000/svg">
<path d="M0.0753848 35.5907C-1.52462 7.99066 22.7421 10.7573 35.0754 15.5907C55.8755 7.19066 64.742 15.7573 66.5752 21.0907C75.7752 56.6907 54.4085 72.5907 42.5752 76.0907H27.5752C19.0753 74.0907 1.67538 63.1907 0.0753848 35.5907Z" fill="#FE3434"/>
<path d="M34.5 16L32.0752 14.5907C33.0752 11.0907 36.7752 3.49067 43.5752 1.09067C50.3752 -1.30933 49.7419 1.09068 48.5752 2.59068C40.5752 5.79068 39.2419 11.5907 39.5752 14.0907L34.5 16Z" fill="#A03C0C"/>
<path d="M26.4355 51.1238V46.0652L36.4502 30.3083H44.6875V46.031H47.5586V51.1238H44.6875V55.0544H38.4668V51.1238H26.4355ZM32.8613 46.031H38.6035V37.0759H38.3984L32.8613 45.8601V46.031Z" fill="#FEFEFE"/>
</svg>
