<svg width="69" height="77" viewBox="0 0 69 77" fill="none" xmlns="http://www.w3.org/2000/svg">
<path d="M0.0753848 35.5362C-1.52462 7.93622 22.7421 10.7029 35.0754 15.5362C55.8755 7.13622 64.742 15.7029 66.5752 21.0362C75.7752 56.6362 54.4085 72.5362 42.5752 76.0362H27.5752C19.0753 74.0362 1.67538 63.1362 0.0753848 35.5362Z" fill="#FE3434"/>
<path d="M35 16L32.0752 14.5362C33.0752 11.0362 36.7752 3.43623 43.5752 1.03623C50.3752 -1.36377 49.7419 1.03623 48.5752 2.53623C40.5752 5.73623 39.2419 11.5362 39.5752 14.0362L35 16Z" fill="#A03C0C"/>
<path d="M38.6377 30.2539V55H32.1094V36.2695H31.9727L26.5039 39.5508V33.9795L32.6221 30.2539H38.6377Z" fill="#FEFEFE"/>
</svg>
