<svg width="69" height="77" viewBox="0 0 69 77" fill="none" xmlns="http://www.w3.org/2000/svg">
<path d="M0.0753848 35.6634C-1.52462 8.06342 22.7421 10.8301 35.0754 15.6634C55.8755 7.26342 64.742 15.8301 66.5752 21.1634C75.7752 56.7634 54.4085 72.6634 42.5752 76.1634H27.5752C19.0753 74.1634 1.67538 63.2634 0.0753848 35.6634Z" fill="#FE3434"/>
<path d="M34.5 16L32.0752 14.6634C33.0752 11.1634 36.7752 3.56343 43.5752 1.16343C50.3752 -1.23657 49.7419 1.16343 48.5752 2.66343C40.5752 5.86343 39.2419 11.6634 39.5752 14.1634L34.5 16Z" fill="#A03C0C"/>
<path d="M36.6895 55.469C30.7422 55.469 26.3672 52.427 26.3672 48.428C26.3672 45.3518 28.8965 42.8909 32.0752 42.4124V42.2073C29.3066 41.7288 27.29 39.5071 27.29 36.7385C27.29 32.8762 31.2891 30.0393 36.6895 30.0393C42.0898 30.0393 46.0547 32.8762 46.0547 36.7385C46.0547 39.5071 44.0039 41.7288 41.2695 42.2073V42.4124C44.4141 42.8909 46.9775 45.3518 46.9775 48.428C46.9775 52.427 42.6367 55.469 36.6895 55.469ZM36.6895 50.7522C38.6719 50.7522 40.1074 49.4534 40.1074 47.676C40.1074 45.8987 38.6719 44.634 36.6895 44.634C34.707 44.634 33.2715 45.8987 33.2715 47.676C33.2715 49.4534 34.707 50.7522 36.6895 50.7522ZM36.6895 40.2932C38.4326 40.2932 39.6973 39.0969 39.6973 37.4905C39.6973 35.9182 38.4326 34.7561 36.6895 34.7561C34.9463 34.7561 33.6816 35.884 33.6816 37.4905C33.6816 39.0969 34.9463 40.2932 36.6895 40.2932Z" fill="#FEFEFE"/>
</svg>
