<svg width="69" height="77" viewBox="0 0 69 77" fill="none" xmlns="http://www.w3.org/2000/svg">
<path d="M0.0753848 35.609C-1.52462 8.00897 22.7421 10.7756 35.0754 15.609C55.8755 7.20897 64.742 15.7756 66.5752 21.109C75.7752 56.709 54.4085 72.609 42.5752 76.109H27.5752C19.0753 74.109 1.67538 63.209 0.0753848 35.609Z" fill="#FE3434"/>
<path d="M34.5 16L32.0752 14.609C33.0752 11.109 36.7752 3.50899 43.5752 1.10899C50.3752 -1.29101 49.7419 1.10899 48.5752 2.60899C40.5752 5.80899 39.2419 11.609 39.5752 14.109L34.5 16Z" fill="#A03C0C"/>
<path d="M36.4844 55.4146C30.8447 55.4146 26.8115 52.1675 26.7773 47.6216H33.1006C33.1689 49.3647 34.6729 50.4585 36.4844 50.4585C38.6035 50.4585 40.1074 48.9888 40.0732 46.8013C40.1074 44.5454 38.6035 43.1099 36.4844 43.1099C34.7754 43.0757 33.7158 43.8276 33.1006 45.0581H27.3242L28.3838 30.3267H44.8242V35.522H33.75L33.2373 41.0933H33.374C34.1602 39.6235 36.1768 38.564 38.6377 38.564C43.0811 38.564 46.3623 41.8794 46.3623 46.5962C46.3623 51.7573 42.4658 55.4146 36.4844 55.4146Z" fill="#FEFEFE"/>
</svg>
