<svg width="69" height="77" viewBox="0 0 69 77" fill="none" xmlns="http://www.w3.org/2000/svg">
<path d="M0.0753848 35.5724C-1.52462 7.97235 22.7421 10.739 35.0754 15.5724C55.8755 7.17235 64.742 15.739 66.5752 21.0723C75.7752 56.6723 54.4085 72.5723 42.5752 76.0723H27.5752C19.0753 74.0723 1.67538 63.1724 0.0753848 35.5724Z" fill="#FE3434"/>
<path d="M34.5 16L32.0752 14.5724C33.0752 11.0724 36.7752 3.47236 43.5752 1.07236C50.3752 -1.32764 49.7419 1.07236 48.5752 2.57236C40.5752 5.77236 39.2419 11.5724 39.5752 14.0724L34.5 16Z" fill="#A03C0C"/>
<path d="M36.2793 55.3779C30.4688 55.3779 26.333 52.1309 26.2988 47.585H32.8613C32.8955 49.0547 34.3311 50.1143 36.3135 50.1143C38.2617 50.1143 39.6289 48.9863 39.6289 47.4141C39.6289 45.8418 38.0908 44.7139 35.8008 44.7139H33.3057V40.2021H35.8008C37.8857 40.2021 39.3213 39.1084 39.2871 37.5361C39.3213 36.0322 38.0908 34.9727 36.3477 34.9727C34.4336 34.9727 33.0664 36.0664 33.0322 37.6045H26.8115C26.8457 33.127 30.8105 29.9482 36.3477 29.9482C41.7822 29.9482 45.5762 32.9902 45.5762 37.126C45.5762 39.8945 43.457 41.8086 40.5518 42.1162V42.3213C44.4824 42.7656 46.499 44.9189 46.499 47.9609C46.499 52.3018 42.2949 55.3779 36.2793 55.3779Z" fill="#FEFEFE"/>
</svg>
