<svg width="69" height="77" viewBox="0 0 69 77" fill="none" xmlns="http://www.w3.org/2000/svg">
<path d="M0.0753848 35.6815C-1.52462 8.08148 22.7421 10.8481 35.0754 15.6815C55.8755 7.28148 64.742 15.8481 66.5752 21.1815C75.7752 56.7815 54.4085 72.6815 42.5752 76.1815H27.5752C19.0753 74.1815 1.67538 63.2815 0.0753848 35.6815Z" fill="#FE3434"/>
<path d="M34.5 16L32.0752 14.6815C33.0752 11.1815 36.7752 3.5815 43.5752 1.1815C50.3752 -1.2185 49.7419 1.1815 48.5752 2.6815C40.5752 5.8815 39.2419 11.6815 39.5752 14.1815L34.5 16Z" fill="#A03C0C"/>
<path d="M36.2793 30.0574C41.9531 30.0574 46.875 33.4412 46.9092 42.3621C46.9092 50.4968 42.6709 55.4871 36.2109 55.4871C30.7764 55.4871 27.1533 52.0349 26.709 47.7283H33.1348C33.4766 49.2664 34.707 49.95 36.2109 49.95C39.082 49.95 40.415 47.2498 40.4492 43.0115H40.2783C39.3213 45.3015 36.792 46.6345 33.9551 46.6345C29.4775 46.6345 26.4697 43.3533 26.4355 38.8416C26.4014 33.5779 30.4346 30.0574 36.2793 30.0574ZM36.3135 35.0134C34.2285 35.0134 32.7246 36.5515 32.7588 38.6023C32.793 40.6531 34.2285 42.1912 36.3135 42.1912C38.3301 42.1912 39.9023 40.6189 39.8682 38.6023C39.834 36.5515 38.3301 35.0134 36.3135 35.0134Z" fill="#FEFEFE"/>
</svg>
