<svg width="69" height="77" viewBox="0 0 69 77" fill="none" xmlns="http://www.w3.org/2000/svg">
<path d="M0.0753848 35.8624C-1.52462 8.26239 22.7421 11.0291 35.0754 15.8624C55.8755 7.46239 64.742 16.0291 66.5752 21.3624C75.7752 56.9624 54.4085 72.8624 42.5752 76.3624H27.5752C19.0753 74.3624 1.67538 63.4624 0.0753848 35.8624Z" fill="#FFD900"/>
<path d="M36.9287 55.5774C31.2207 55.5774 26.2646 52.1936 26.2988 43.1702C26.333 35.1379 30.5371 30.1477 36.9971 30.1477C42.3975 30.1477 46.0547 33.5999 46.4648 37.804H40.0732C39.7314 36.3684 38.501 35.6848 36.9971 35.6848C34.0918 35.6848 32.7588 38.385 32.7588 42.5208H32.8955C33.8867 40.2649 36.416 38.8977 39.2529 38.8977C43.7305 38.8977 46.7725 42.2131 46.7725 46.759C46.7725 52.0569 42.7393 55.5774 36.9287 55.5774ZM36.8945 50.6213C38.9453 50.6213 40.4492 49.0833 40.4492 46.9983C40.4492 44.8792 38.9795 43.3411 36.8945 43.3411C34.8438 43.3411 33.3398 44.8792 33.3398 46.9983C33.3398 49.0833 34.8438 50.6213 36.8945 50.6213Z" fill="#FEFEFE"/>
<path d="M34.5 16.1628L32.0752 14.8624C33.0752 11.3624 36.7752 3.7624 43.5752 1.3624C50.3752 -1.0376 49.7419 1.3624 48.5752 2.8624C40.5752 6.0624 39.2419 11.8624 39.5752 14.3624L34.5 16.1628Z" fill="#A03C0C"/>
</svg>
