<svg width="69" height="77" viewBox="0 0 69 77" fill="none" xmlns="http://www.w3.org/2000/svg">
<path d="M0.0753848 35.8443C-1.52462 8.24432 22.7421 11.011 35.0754 15.8443C55.8755 7.44432 64.742 16.011 66.5752 21.3443C75.7752 56.9443 54.4085 72.8443 42.5752 76.3443H27.5752C19.0753 74.3443 1.67538 63.4443 0.0753848 35.8443Z" fill="#FFD900"/>
<path d="M36.4844 55.5593C30.8447 55.5593 26.8115 52.3123 26.7773 47.7664H33.1006C33.1689 49.5095 34.6729 50.6033 36.4844 50.6033C38.6035 50.6033 40.1074 49.1335 40.0732 46.946C40.1074 44.6902 38.6035 43.2546 36.4844 43.2546C34.7754 43.2205 33.7158 43.9724 33.1006 45.2029H27.3242L28.3838 30.4714H44.8242V35.6667H33.75L33.2373 41.238H33.374C34.1602 39.7683 36.1768 38.7087 38.6377 38.7087C43.0811 38.7087 46.3623 42.0242 46.3623 46.741C46.3623 51.9021 42.4658 55.5593 36.4844 55.5593Z" fill="#FEFEFE"/>
<path d="M34.5 16.1448L32.0752 14.8443C33.0752 11.3443 36.7752 3.74434 43.5752 1.34434C50.3752 -1.05566 49.7419 1.34434 48.5752 2.84434C40.5752 6.04434 39.2419 11.8443 39.5752 14.3443L34.5 16.1448Z" fill="#A03C0C"/>
</svg>
