<svg width="69" height="77" viewBox="0 0 69 77" fill="none" xmlns="http://www.w3.org/2000/svg">
<path d="M0.0753848 35.8082C-1.52462 8.20819 22.7421 10.9749 35.0754 15.8082C55.8755 7.40819 64.742 15.9749 66.5752 21.3082C75.7752 56.9082 54.4085 72.8082 42.5752 76.3082H27.5752C19.0753 74.3082 1.67538 63.4082 0.0753848 35.8082Z" fill="#FFD900"/>
<path d="M36.2793 55.5232C30.4688 55.5232 26.333 52.2761 26.2988 47.7302H32.8613C32.8955 49.2 34.3311 50.2595 36.3135 50.2595C38.2617 50.2595 39.6289 49.1316 39.6289 47.5593C39.6289 45.9871 38.0908 44.8591 35.8008 44.8591H33.3057V40.3474H35.8008C37.8857 40.3474 39.3213 39.2537 39.2871 37.6814C39.3213 36.1775 38.0908 35.1179 36.3477 35.1179C34.4336 35.1179 33.0664 36.2117 33.0322 37.7498H26.8115C26.8457 33.2722 30.8105 30.0935 36.3477 30.0935C41.7822 30.0935 45.5762 33.1355 45.5762 37.2712C45.5762 40.0398 43.457 41.9539 40.5518 42.2615V42.4666C44.4824 42.9109 46.499 45.0642 46.499 48.1062C46.499 52.447 42.2949 55.5232 36.2793 55.5232Z" fill="#FEFEFE"/>
<path d="M34.5 16.1086L32.0752 14.8082C33.0752 11.3082 36.7752 3.7082 43.5752 1.3082C50.3752 -1.0918 49.7419 1.3082 48.5752 2.8082C40.5752 6.0082 39.2419 11.8082 39.5752 14.3082L34.5 16.1086Z" fill="#A03C0C"/>
</svg>
