<svg width="69" height="77" viewBox="0 0 69 77" fill="none" xmlns="http://www.w3.org/2000/svg">
<path d="M0.0753848 35.7721C-1.52462 8.17206 22.7421 10.9387 35.0754 15.7721C55.8755 7.37206 64.742 15.9387 66.5752 21.2721C75.7752 56.8721 54.4085 72.7721 42.5752 76.2721H27.5752C19.0753 74.2721 1.67538 63.3721 0.0753848 35.7721Z" fill="#FFD900"/>
<path d="M38.6377 30.3992V55.1453H32.1094V36.4148H31.9727L26.5039 39.696V34.1248L32.6221 30.3992H38.6377Z" fill="#FEFEFE"/>
<path d="M34.5 16.0725L32.0752 14.7721C33.0752 11.2721 36.7752 3.67207 43.5752 1.27207C50.3752 -1.12793 49.7419 1.27207 48.5752 2.77207C40.5752 5.97207 39.2419 11.7721 39.5752 14.2721L34.5 16.0725Z" fill="#A03C0C"/>
</svg>
