<svg width="69" height="77" viewBox="0 0 69 77" fill="none" xmlns="http://www.w3.org/2000/svg">
<path d="M0.0753848 35.8985C-1.52462 8.29852 22.7421 11.0652 35.0754 15.8985C55.8755 7.49852 64.742 16.0652 66.5752 21.3985C75.7752 56.9985 54.4085 72.8985 42.5752 76.3985H27.5752C19.0753 74.3985 1.67538 63.4985 0.0753848 35.8985Z" fill="#FFD900"/>
<path d="M36.6895 55.6135C30.7422 55.6135 26.3672 52.5715 26.3672 48.5725C26.3672 45.4963 28.8965 43.0354 32.0752 42.5569V42.3518C29.3066 41.8733 27.29 39.6516 27.29 36.8831C27.29 33.0208 31.2891 30.1838 36.6895 30.1838C42.0898 30.1838 46.0547 33.0208 46.0547 36.8831C46.0547 39.6516 44.0039 41.8733 41.2695 42.3518V42.5569C44.4141 43.0354 46.9775 45.4963 46.9775 48.5725C46.9775 52.5715 42.6367 55.6135 36.6895 55.6135ZM36.6895 50.8967C38.6719 50.8967 40.1074 49.5979 40.1074 47.8206C40.1074 46.0432 38.6719 44.7786 36.6895 44.7786C34.707 44.7786 33.2715 46.0432 33.2715 47.8206C33.2715 49.5979 34.707 50.8967 36.6895 50.8967ZM36.6895 40.4377C38.4326 40.4377 39.6973 39.2415 39.6973 37.635C39.6973 36.0627 38.4326 34.9006 36.6895 34.9006C34.9463 34.9006 33.6816 36.0286 33.6816 37.635C33.6816 39.2415 34.9463 40.4377 36.6895 40.4377Z" fill="#FEFEFE"/>
<path d="M34.5 16.199L32.0752 14.8985C33.0752 11.3985 36.7752 3.79854 43.5752 1.39854C50.3752 -1.00146 49.7419 1.39854 48.5752 2.89854C40.5752 6.09854 39.2419 11.8985 39.5752 14.3985L34.5 16.199Z" fill="#A03C0C"/>
</svg>
