<svg width="69" height="77" viewBox="0 0 69 77" fill="none" xmlns="http://www.w3.org/2000/svg">
<path d="M0.0753848 35.9166C-1.52462 8.31659 22.7421 11.0833 35.0754 15.9166C55.8755 7.51659 64.742 16.0833 66.5752 21.4166C75.7752 57.0166 54.4085 72.9166 42.5752 76.4166H27.5752C19.0753 74.4166 1.67538 63.5166 0.0753848 35.9166Z" fill="#FFD900"/>
<path d="M36.2793 30.2019C41.9531 30.2019 46.875 33.5857 46.9092 42.5066C46.9092 50.6414 42.6709 55.6316 36.2109 55.6316C30.7764 55.6316 27.1533 52.1794 26.709 47.8728H33.1348C33.4766 49.4109 34.707 50.0945 36.2109 50.0945C39.082 50.0945 40.415 47.3943 40.4492 43.156H40.2783C39.3213 45.446 36.792 46.7791 33.9551 46.7791C29.4775 46.7791 26.4697 43.4978 26.4355 38.9861C26.4014 33.7224 30.4346 30.2019 36.2793 30.2019ZM36.3135 35.158C34.2285 35.158 32.7246 36.696 32.7588 38.7468C32.793 40.7976 34.2285 42.3357 36.3135 42.3357C38.3301 42.3357 39.9023 40.7634 39.8682 38.7468C39.834 36.696 38.3301 35.158 36.3135 35.158Z" fill="#FEFEFE"/>
<path d="M34.5 16.217L32.0752 14.9166C33.0752 11.4166 36.7752 3.8166 43.5752 1.4166C50.3752 -0.983397 49.7419 1.4166 48.5752 2.9166C40.5752 6.1166 39.2419 11.9166 39.5752 14.4166L34.5 16.217Z" fill="#A03C0C"/>
</svg>
