<svg width="69" height="77" viewBox="0 0 69 77" fill="none" xmlns="http://www.w3.org/2000/svg">
<path d="M0.0753848 35.8805C-1.52462 8.28046 22.7421 11.0471 35.0754 15.8805C55.8755 7.48046 64.742 16.0471 66.5752 21.3805C75.7752 56.9805 54.4085 72.8805 42.5752 76.3805H27.5752C19.0753 74.3805 1.67538 63.4805 0.0753848 35.8805Z" fill="#FFD900"/>
<path d="M27.7686 55.2537L37.5781 35.8738V35.7029H26.0938V30.5076H44.3457V35.7371L34.4678 55.2537H27.7686Z" fill="#FEFEFE"/>
<path d="M34.5 16.1809L32.0752 14.8805C33.0752 11.3805 36.7752 3.78047 43.5752 1.38047C50.3752 -1.01953 49.7419 1.38047 48.5752 2.88047C40.5752 6.08047 39.2419 11.8805 39.5752 14.3805L34.5 16.1809Z" fill="#A03C0C"/>
</svg>
