<svg width="69" height="77" viewBox="0 0 69 77" fill="none" xmlns="http://www.w3.org/2000/svg">
<path d="M0.0753848 35.8263C-1.52462 8.22626 22.7421 10.9929 35.0754 15.8263C55.8755 7.42626 64.742 15.9929 66.5752 21.3263C75.7752 56.9263 54.4085 72.8263 42.5752 76.3263H27.5752C19.0753 74.3263 1.67538 63.4263 0.0753848 35.8263Z" fill="#FFD900"/>
<path d="M26.4355 51.2688V46.2102L36.4502 30.4534H44.6875V46.176H47.5586V51.2688H44.6875V55.1995H38.4668V51.2688H26.4355ZM32.8613 46.176H38.6035V37.2209H38.3984L32.8613 46.0051V46.176Z" fill="#FEFEFE"/>
<path d="M34.5 16.1267L32.0752 14.8263C33.0752 11.3263 36.7752 3.72627 43.5752 1.32627C50.3752 -1.07373 49.7419 1.32627 48.5752 2.82627C40.5752 6.02627 39.2419 11.8263 39.5752 14.3263L34.5 16.1267Z" fill="#A03C0C"/>
</svg>
