<svg width="69" height="77" viewBox="0 0 69 77" fill="none" xmlns="http://www.w3.org/2000/svg">
<path d="M0.0753848 35.7901C-1.52462 8.19012 22.7421 10.9568 35.0754 15.7901C55.8755 7.39013 64.742 15.9568 66.5752 21.2901C75.7752 56.8901 54.4085 72.7901 42.5752 76.2901H27.5752C19.0753 74.2901 1.67538 63.3901 0.0753848 35.7901Z" fill="#FFD900"/>
<path d="M26.6748 55.1633V50.4807L35.8691 42.7561C37.749 41.1497 38.9111 39.9875 38.9111 38.2102C38.9111 36.2961 37.5439 35.0999 35.6299 35.0999C33.7158 35.0999 32.417 36.2961 32.417 38.4153H26.2305C26.2305 33.2542 29.9561 30.0754 35.6299 30.0754C41.4746 30.0754 45.2344 33.0833 45.2344 37.6633C45.2344 40.5344 43.7988 42.9612 38.2275 47.6438L35.7324 49.7971V49.9338H45.5078V55.1633H26.6748Z" fill="#FEFEFE"/>
<path d="M34.5 16.0906L32.0752 14.7901C33.0752 11.2901 36.7752 3.69014 43.5752 1.29014C50.3752 -1.10986 49.7419 1.29014 48.5752 2.79014C40.5752 5.99014 39.2419 11.7901 39.5752 14.2901L34.5 16.0906Z" fill="#A03C0C"/>
</svg>
